# xmcd
# Copyright (c) 1998 CDDB Inc.
#
# Track frame offsets:
#	150
#	18616
#	35524
#	53237
#	75002
#	91448
#	107956
#	128769
#	146019
#	166324
#	185228
#	204548
#	223528
#	240143
#
# Disc length: 3447 seconds
#
# Revision: 1
# Processed by: cddbd v1.5.2PL0 Copyright (c) Steve Scherf et al.
# Submitted via: AudioCatalyst 2.10full
#
DISCID=bc0d750e
DTITLE=Bando Gaúcho - Puro Sangue
DYEAR=1900
DGENRE=
TTITLE0=O gauchão
TTITLE1=Versos campeiros
TTITLE2=O mel do veinho
TTITLE3=Olhos de cristal
TTITLE4=Galpão do Caburé
TTITLE5=Chora viola
TTITLE6=Coração gaúcho
TTITLE7=Minha fazenda
TTITLE8=Amor sem futuro
TTITLE9=Puro sangue
TTITLE10=Suando a picanha
TTITLE11=O fole do povo
TTITLE12=Desgraceira
TTITLE13=Pra ser o teu amor
EXTD=
EXTT0=
EXTT1=
EXTT2=
EXTT3=
EXTT4=
EXTT5=
EXTT6=
EXTT7=
EXTT8=
EXTT9=
EXTT10=
EXTT11=
EXTT12=
EXTT13=
PLAYORDER=
